<svg width="1600" height="900" viewBox="0 0 1600 900" fill="none" xmlns="http://www.w3.org/2000/svg">
  <defs>
    <linearGradient id="bgFade" x1="0" y1="0" x2="1600" y2="900" gradientUnits="userSpaceOnUse">
      <stop stop-color="#FCFBFF"/>
      <stop offset="1" stop-color="#F7F8FF"/>
    </linearGradient>
    <filter id="cardShadow" x="-20%" y="-20%" width="140%" height="160%">
      <feDropShadow dx="0" dy="8" stdDeviation="12" flood-color="#8A82B8" flood-opacity="0.12"/>
    </filter>
    <style>
      .title { font: 700 34px 'Segoe UI', Arial, sans-serif; fill: #2D2946; }
      .subtitle { font: 500 15px 'Segoe UI', Arial, sans-serif; fill: #7A7694; }
      .laneHead { font: 700 22px 'Segoe UI', Arial, sans-serif; fill: #2E2943; }
      .stack { font: 500 13px 'Segoe UI', Arial, sans-serif; fill: #7B7597; }
      .cardTitle { font: 700 18px 'Segoe UI', Arial, sans-serif; fill: #2D2946; }
      .cardBody { font: 500 14px 'Segoe UI', Arial, sans-serif; fill: #6E678A; }
      .pill { font: 600 14px 'Segoe UI', Arial, sans-serif; fill: white; }
      .legendTitle { font: 700 22px 'Segoe UI', Arial, sans-serif; fill: #3A3554; }
      .legendText { font: 500 14px 'Segoe UI', Arial, sans-serif; fill: #5E5978; }
      .footer { font: 500 12px 'Segoe UI', Arial, sans-serif; fill: #8A86A5; }
    </style>
  </defs>

  <rect width="1600" height="900" fill="url(#bgFade)"/>
  <g opacity="0.45">
    <path d="M0 40H1600M0 90H1600M0 140H1600M0 190H1600M0 240H1600M0 290H1600M0 340H1600M0 390H1600M0 440H1600M0 490H1600M0 540H1600M0 590H1600M0 640H1600M0 690H1600M0 740H1600M0 790H1600M0 840H1600" stroke="#DDD8F1"/>
    <path d="M40 0V900M90 0V900M140 0V900M190 0V900M240 0V900M290 0V900M340 0V900M390 0V900M440 0V900M490 0V900M540 0V900M590 0V900M640 0V900M690 0V900M740 0V900M790 0V900M840 0V900M890 0V900M940 0V900M990 0V900M1040 0V900M1090 0V900M1140 0V900M1190 0V900M1240 0V900M1290 0V900M1340 0V900M1390 0V900M1440 0V900M1490 0V900M1540 0V900" stroke="#DDD8F1"/>
  </g>

  <text x="800" y="58" text-anchor="middle" class="title">Duplixis AI — System Architecture</text>
  <text x="800" y="86" text-anchor="middle" class="subtitle">Multilingual duplicate detection · React frontend · Zustand workflow · ICP-ready backend</text>

  <!-- Lane headers -->
  <rect x="70" y="112" rx="20" ry="20" width="260" height="42" fill="#D5CCFF" stroke="#8B7CE8"/>
  <text x="200" y="139" text-anchor="middle" class="laneHead">Client layer</text>

  <rect x="430" y="112" rx="20" ry="20" width="260" height="42" fill="#BFEFDD" stroke="#2AAC87"/>
  <text x="560" y="139" text-anchor="middle" class="laneHead">Application flow</text>

  <rect x="790" y="112" rx="20" ry="20" width="260" height="42" fill="#F8C9DB" stroke="#DF5A8F"/>
  <text x="920" y="139" text-anchor="middle" class="laneHead">Core services</text>

  <rect x="1150" y="112" rx="20" ry="20" width="260" height="42" fill="#BFDDFE" stroke="#4A8FDE"/>
  <text x="1280" y="139" text-anchor="middle" class="laneHead">Platform / data</text>

  <!-- Lane shells -->
  <rect x="50" y="176" width="300" height="590" rx="24" fill="#FAF9FF" stroke="#9082EA" stroke-width="2"/>
  <rect x="410" y="176" width="300" height="590" rx="24" fill="#F8FFFC" stroke="#2AAC87" stroke-width="2"/>
  <rect x="770" y="176" width="300" height="590" rx="24" fill="#FFF9FC" stroke="#DF5A8F" stroke-width="2"/>
  <rect x="1130" y="176" width="300" height="590" rx="24" fill="#F8FBFF" stroke="#4A8FDE" stroke-width="2"/>

  <text x="200" y="210" text-anchor="middle" class="stack">React 19 + Tailwind CSS + Motion</text>
  <text x="560" y="210" text-anchor="middle" class="stack">TanStack Router · Zustand · Persist</text>
  <text x="920" y="210" text-anchor="middle" class="stack">Detection pipeline · Matching logic · ICP integration</text>
  <text x="1280" y="210" text-anchor="middle" class="stack">Mock data · Generated bindings · Motoko canister</text>

  <!-- Client cards -->
  <g filter="url(#cardShadow)">
    <rect x="96" y="224" width="208" height="100" rx="14" fill="#D9D1FF" stroke="#7F72DF"/>
    <rect x="96" y="224" width="208" height="10" rx="10" fill="#7F72DF"/>
    <text x="200" y="269" text-anchor="middle" class="cardTitle">Landing page UI</text>
    <text x="200" y="294" text-anchor="middle" class="cardBody">Hero · features · CTA flow</text>

    <rect x="96" y="344" width="208" height="100" rx="14" fill="#D9D1FF" stroke="#7F72DF"/>
    <rect x="96" y="344" width="208" height="10" rx="10" fill="#7F72DF"/>
    <text x="200" y="389" text-anchor="middle" class="cardTitle">Detect page</text>
    <text x="200" y="414" text-anchor="middle" class="cardBody">File upload · manual entry</text>

    <rect x="96" y="464" width="208" height="100" rx="14" fill="#D9D1FF" stroke="#7F72DF"/>
    <rect x="96" y="464" width="208" height="10" rx="10" fill="#7F72DF"/>
    <text x="200" y="509" text-anchor="middle" class="cardTitle">Input capture</text>
    <text x="200" y="534" text-anchor="middle" class="cardBody">CSV / JSON / form input</text>

    <rect x="96" y="584" width="208" height="100" rx="14" fill="#D9D1FF" stroke="#7F72DF"/>
    <rect x="96" y="584" width="208" height="10" rx="10" fill="#7F72DF"/>
    <text x="200" y="629" text-anchor="middle" class="cardTitle">Results dashboard</text>
    <text x="200" y="654" text-anchor="middle" class="cardBody">Groups · filters · export</text>
  </g>

  <rect x="118" y="710" width="164" height="36" rx="12" fill="#7F72DF"/>
  <text x="200" y="733" text-anchor="middle" class="pill">Deploy: Frontend</text>

  <!-- Application cards -->
  <g filter="url(#cardShadow)">
    <rect x="456" y="224" width="208" height="100" rx="14" fill="#C8F3E4" stroke="#2AAC87"/>
    <rect x="456" y="224" width="208" height="10" rx="10" fill="#2AAC87"/>
    <text x="560" y="269" text-anchor="middle" class="cardTitle">App router</text>
    <text x="560" y="294" text-anchor="middle" class="cardBody">Routes + shared layout shell</text>

    <rect x="456" y="344" width="208" height="100" rx="14" fill="#C8F3E4" stroke="#2AAC87"/>
    <rect x="456" y="344" width="208" height="10" rx="10" fill="#2AAC87"/>
    <text x="560" y="389" text-anchor="middle" class="cardTitle">View orchestration</text>
    <text x="560" y="414" text-anchor="middle" class="cardBody">Input → processing → results</text>

    <rect x="456" y="464" width="208" height="100" rx="14" fill="#C8F3E4" stroke="#2AAC87"/>
    <rect x="456" y="464" width="208" height="10" rx="10" fill="#2AAC87"/>
    <text x="560" y="509" text-anchor="middle" class="cardTitle">Input validation</text>
    <text x="560" y="534" text-anchor="middle" class="cardBody">File checks · form checks</text>

    <rect x="456" y="584" width="208" height="100" rx="14" fill="#C8F3E4" stroke="#2AAC87"/>
    <rect x="456" y="584" width="208" height="10" rx="10" fill="#2AAC87"/>
    <text x="560" y="629" text-anchor="middle" class="cardTitle">Zustand store</text>
    <text x="560" y="654" text-anchor="middle" class="cardBody">Progress · results · filters</text>
  </g>

  <rect x="478" y="710" width="164" height="36" rx="12" fill="#2AAC87"/>
  <text x="560" y="733" text-anchor="middle" class="pill">Client state</text>

  <!-- Core cards -->
  <g filter="url(#cardShadow)">
    <rect x="816" y="224" width="208" height="100" rx="14" fill="#FFD7E5" stroke="#DF5A8F"/>
    <rect x="816" y="224" width="208" height="10" rx="10" fill="#DF5A8F"/>
    <text x="920" y="269" text-anchor="middle" class="cardTitle">Navigation actions</text>
    <text x="920" y="294" text-anchor="middle" class="cardBody">CTA and section flow control</text>

    <rect x="816" y="344" width="208" height="100" rx="14" fill="#FFD7E5" stroke="#DF5A8F"/>
    <rect x="816" y="344" width="208" height="10" rx="10" fill="#DF5A8F"/>
    <text x="920" y="389" text-anchor="middle" class="cardTitle">Processing orchestrator</text>
    <text x="920" y="414" text-anchor="middle" class="cardBody">Guided detection pipeline</text>

    <rect x="816" y="464" width="208" height="100" rx="14" fill="#FFD7E5" stroke="#DF5A8F"/>
    <rect x="816" y="464" width="208" height="10" rx="10" fill="#DF5A8F"/>
    <text x="920" y="509" text-anchor="middle" class="cardTitle">Mock detection engine</text>
    <text x="920" y="534" text-anchor="middle" class="cardBody">Simulated language + similarity flow</text>

    <rect x="816" y="584" width="208" height="100" rx="14" fill="#FFD7E5" stroke="#DF5A8F"/>
    <rect x="816" y="584" width="208" height="10" rx="10" fill="#DF5A8F"/>
    <text x="920" y="629" text-anchor="middle" class="cardTitle">Similarity grouping</text>
    <text x="920" y="654" text-anchor="middle" class="cardBody">Confidence + ranked matches</text>
  </g>

  <rect x="838" y="710" width="164" height="36" rx="12" fill="#DF5A8F"/>
  <text x="920" y="733" text-anchor="middle" class="pill">Detection logic</text>

  <!-- Data cards -->
  <g filter="url(#cardShadow)">
    <rect x="1176" y="224" width="208" height="100" rx="14" fill="#D4E7FF" stroke="#4A8FDE"/>
    <rect x="1176" y="224" width="208" height="10" rx="10" fill="#4A8FDE"/>
    <text x="1280" y="269" text-anchor="middle" class="cardTitle">Layout shell</text>
    <text x="1280" y="294" text-anchor="middle" class="cardBody">Navbar · footer · theme provider</text>

    <rect x="1176" y="344" width="208" height="100" rx="14" fill="#D4E7FF" stroke="#4A8FDE"/>
    <rect x="1176" y="344" width="208" height="10" rx="10" fill="#4A8FDE"/>
    <text x="1280" y="389" text-anchor="middle" class="cardTitle">Processing state</text>
    <text x="1280" y="414" text-anchor="middle" class="cardBody">Loading flags · progress steps</text>

    <rect x="1176" y="464" width="208" height="100" rx="14" fill="#D4E7FF" stroke="#4A8FDE"/>
    <rect x="1176" y="464" width="208" height="10" rx="10" fill="#4A8FDE"/>
    <text x="1280" y="509" text-anchor="middle" class="cardTitle">Mock records + steps</text>
    <text x="1280" y="534" text-anchor="middle" class="cardBody">Demo groups · progress labels</text>

    <rect x="1176" y="584" width="208" height="100" rx="14" fill="#D4E7FF" stroke="#4A8FDE"/>
    <rect x="1176" y="584" width="208" height="10" rx="10" fill="#4A8FDE"/>
    <text x="1280" y="629" text-anchor="middle" class="cardTitle">ICP binding + canister</text>
    <text x="1280" y="654" text-anchor="middle" class="cardBody">backend.ts · main.mo scaffold</text>
  </g>

  <rect x="1198" y="710" width="164" height="36" rx="12" fill="#4A8FDE"/>
  <text x="1280" y="733" text-anchor="middle" class="pill">Runtime + backend</text>

  <!-- horizontal arrows -->
  <g stroke-linecap="round" stroke-linejoin="round">
    <line x1="304" y1="274" x2="410" y2="274" stroke="#2AAC87" stroke-width="3"/>
    <path d="M410 274L397 267V281L410 274Z" fill="#2AAC87"/>
    <line x1="664" y1="274" x2="770" y2="274" stroke="#DF5A8F" stroke-width="3"/>
    <path d="M770 274L757 267V281L770 274Z" fill="#DF5A8F"/>
    <line x1="1024" y1="274" x2="1130" y2="274" stroke="#4A8FDE" stroke-width="3"/>
    <path d="M1130 274L1117 267V281L1130 274Z" fill="#4A8FDE"/>

    <line x1="304" y1="394" x2="410" y2="394" stroke="#2AAC87" stroke-width="3"/>
    <path d="M410 394L397 387V401L410 394Z" fill="#2AAC87"/>
    <line x1="664" y1="394" x2="770" y2="394" stroke="#DF5A8F" stroke-width="3"/>
    <path d="M770 394L757 387V401L770 394Z" fill="#DF5A8F"/>
    <line x1="1024" y1="394" x2="1130" y2="394" stroke="#4A8FDE" stroke-width="3"/>
    <path d="M1130 394L1117 387V401L1130 394Z" fill="#4A8FDE"/>

    <line x1="304" y1="514" x2="410" y2="514" stroke="#2AAC87" stroke-width="3"/>
    <path d="M410 514L397 507V521L410 514Z" fill="#2AAC87"/>
    <line x1="664" y1="514" x2="770" y2="514" stroke="#DF5A8F" stroke-width="3"/>
    <path d="M770 514L757 507V521L770 514Z" fill="#DF5A8F"/>
    <line x1="1024" y1="514" x2="1130" y2="514" stroke="#4A8FDE" stroke-width="3"/>
    <path d="M1130 514L1117 507V521L1130 514Z" fill="#4A8FDE"/>

    <line x1="304" y1="634" x2="410" y2="634" stroke="#2AAC87" stroke-width="3"/>
    <path d="M410 634L397 627V641L410 634Z" fill="#2AAC87"/>
    <line x1="664" y1="634" x2="770" y2="634" stroke="#DF5A8F" stroke-width="3"/>
    <path d="M770 634L757 627V641L770 634Z" fill="#DF5A8F"/>
    <line x1="1024" y1="634" x2="1130" y2="634" stroke="#4A8FDE" stroke-width="3"/>
    <path d="M1130 634L1117 627V641L1130 634Z" fill="#4A8FDE"/>
  </g>

  <!-- future backend -->
  <line x1="920" y1="684" x2="920" y2="770" stroke="#BF8124" stroke-width="3" stroke-dasharray="10 8"/>
  <path d="M920 782L912 770H928L920 782Z" fill="#BF8124"/>
  <rect x="790" y="782" width="260" height="78" rx="14" fill="#F7E6BE" stroke="#BF8124" stroke-width="2"/>
  <rect x="790" y="782" width="260" height="10" rx="10" fill="#BF8124"/>
  <text x="920" y="825" text-anchor="middle" class="cardTitle">Future production backend</text>
  <text x="920" y="848" text-anchor="middle" class="cardBody">Real multilingual NLP · persistent storage</text>

  <!-- Legend -->
  <rect x="70" y="810" width="1460" height="70" rx="18" fill="#FFFFFF" stroke="#D7D3EA"/>
  <text x="800" y="836" text-anchor="middle" class="legendTitle">Legend</text>

  <rect x="120" y="848" width="18" height="18" rx="4" fill="#D5CCFF" stroke="#8B7CE8"/>
  <text x="148" y="862" class="legendText">Client (React)</text>

  <rect x="310" y="848" width="18" height="18" rx="4" fill="#BFEFDD" stroke="#2AAC87"/>
  <text x="338" y="862" class="legendText">Application flow</text>

  <rect x="520" y="848" width="18" height="18" rx="4" fill="#F8C9DB" stroke="#DF5A8F"/>
  <text x="548" y="862" class="legendText">Core services</text>

  <rect x="700" y="848" width="18" height="18" rx="4" fill="#BFDDFE" stroke="#4A8FDE"/>
  <text x="728" y="862" class="legendText">Platform / data</text>

  <rect x="930" y="848" width="18" height="18" rx="4" fill="#F7E6BE" stroke="#BF8124"/>
  <text x="958" y="862" class="legendText">Future extension</text>

  <line x1="1120" y1="857" x2="1160" y2="857" stroke="#2AAC87" stroke-width="3"/>
  <path d="M1160 857L1150 851V863L1160 857Z" fill="#2AAC87"/>
  <text x="1170" y="862" class="legendText">UI flow</text>

  <line x1="1260" y1="857" x2="1300" y2="857" stroke="#DF5A8F" stroke-width="3"/>
  <path d="M1300 857L1290 851V863L1300 857Z" fill="#DF5A8F"/>
  <text x="1310" y="862" class="legendText">Service orchestration</text>

  <line x1="1430" y1="857" x2="1470" y2="857" stroke="#4A8FDE" stroke-width="3"/>
  <path d="M1470 857L1460 851V863L1470 857Z" fill="#4A8FDE"/>
  <text x="1480" y="862" class="legendText">Runtime handoff</text>
</svg>
